<?xml version="1.0" encoding="utf-8"?>
<!-- Generator: Adobe Illustrator 18.0.0, SVG Export Plug-In . SVG Version: 6.00 Build 0)  -->
<!DOCTYPE svg PUBLIC "-//W3C//DTD SVG 1.1//EN" "http://www.w3.org/Graphics/SVG/1.1/DTD/svg11.dtd">
<svg version="1.1" id="Слой_1" xmlns="http://www.w3.org/2000/svg" xmlns:xlink="http://www.w3.org/1999/xlink" x="0px" y="0px"
	 viewBox="0 54 768 972" enable-background="new 0 54 768 972" xml:space="preserve">
<path fill="#808080"      d="
	M64,1003.9c-0.6,3.1-1.9,5.9-3.8,8.5c-3.7,4.8-9.1,7.6-15.3,8.4c-8.3,1.1-17.9-1.4-26.1-7.7c0,0,0,0-0.1-0.1c0,0-0.1,0-0.1-0.1
	c-7.1-5.5-11.8-12.6-13.6-19.8C3,985.8,4,978.4,8.3,972.7c6.6-8.6,16-13.1,27.8-8.8l50-65.4L205,734.6c19.1-31.2,37.6-61.2,49-79.6
	c13.3,32,38,34.1,53.6,31.7c-14,15-40.6,43.1-69.2,73.5L115,913.2l-53.6,70.1c1.7,2.4,3,5,4,7.6c1.9,4.8-0.5,7.2-1.2,11.6
	c0,0.2-0.1,0.3-0.1,0.5C64.1,1003.3,64,1003.6,64,1003.9z M766.3,148.7c0-0.1,0-0.2,0-0.3c0-1,0.4-2.1,0.4-3.1
	c0-0.8,0.1-1.6,0.1-2.3c0-0.4,0.2-0.9,0.2-1.3c-1.8-22-14-45-35.2-61.2c0,0,0,0,0,0c0,0,0,0,0,0c-14.5-11.1-31-17.2-46.9-18.8
	c-23.2-2.3-45.3,5.5-58.7,23c-1.9,2.4-3.5,5-4.9,7.6c-38.2,53.8-274.5,387.9-356,544.4c0,0-0.1,0.2-0.3,0.5
	c3.3,16.8,15.6,36.6,55.6,36c131.4-122.5,389.5-435.1,429.3-483.6c1.9-1.9,3.3-3.9,5-6.1C762.7,173.4,766.3,161.3,766.3,148.7z"/>
</svg>
